<svg width="42" height="42" viewBox="0 0 42 42" fill="none" xmlns="http://www.w3.org/2000/svg">
<path d="M14.175 23.345L19.1275 18.3925L6.8425 6.12499C5.53234 7.44023 4.79673 9.22104 4.79673 11.0775C4.79673 12.9339 5.53234 14.7147 6.8425 16.03L14.175 23.345ZM26.04 20.1775C28.7175 21.42 32.48 20.545 35.2625 17.7625C38.605 14.42 39.2525 9.62499 36.68 7.05249C34.125 4.49749 29.33 5.12749 25.97 8.46999C23.1875 11.2525 22.3125 15.015 23.555 17.6925L6.475 34.7725L8.9425 37.24L21 25.2175L33.04 37.2575L35.5075 34.79L23.4675 22.75L26.04 20.1775Z" fill="#F8A45A"/>
</svg>
