<svg width="42" height="42" viewBox="0 0 42 42" fill="none" xmlns="http://www.w3.org/2000/svg">
<path fill-rule="evenodd" clip-rule="evenodd" d="M26.25 3.50003L26.2502 7.5468C27.611 8.07874 28.883 8.81437 30.0227 9.7285L33.5304 7.70339L38.7804 16.7966L35.2742 18.8212C35.3831 19.5423 35.4377 20.2707 35.4375 21C35.4375 21.7407 35.3817 22.4684 35.2742 23.1789L38.7804 25.2034L33.5304 34.2966L30.0228 32.2715C28.883 33.1857 27.611 33.9213 26.2502 34.4532L26.25 38.5001H15.75V34.4533C14.3892 33.9214 13.1171 33.1857 11.9774 32.2716L8.46965 34.2967L3.21965 25.2034L6.72591 23.179C6.61694 22.4578 6.56234 21.7294 6.56259 21C6.56259 20.2593 6.61828 19.5316 6.72583 18.8211L3.21957 16.7966L8.46957 7.70339L11.9772 9.7285C13.117 8.81438 14.3891 8.07877 15.7499 7.54688L15.75 3.50003H26.25ZM21 15.75C18.1005 15.75 15.75 18.1005 15.75 21C15.75 23.8995 18.1005 26.25 21 26.25C23.8995 26.25 26.25 23.8996 26.25 21C26.25 18.1005 23.8995 15.75 21 15.75Z" fill="#F9B374"/>
</svg>
