<svg width="42" height="42" viewBox="0 0 42 42" fill="none" xmlns="http://www.w3.org/2000/svg">
<path d="M8.53125 40.6875H5.90625C5.3841 40.6875 4.88335 40.4801 4.51413 40.1109C4.14492 39.7417 3.9375 39.2409 3.9375 38.7188V26.9062C3.9375 26.3841 4.14492 25.8833 4.51413 25.5141C4.88335 25.1449 5.3841 24.9375 5.90625 24.9375H8.53125C9.05339 24.9375 9.55415 25.1449 9.92337 25.5141C10.2926 25.8833 10.5 26.3841 10.5 26.9062V38.7188C10.5 39.2409 10.2926 39.7417 9.92337 40.1109C9.55415 40.4801 9.05339 40.6875 8.53125 40.6875ZM26.9062 40.6875H24.2812C23.7591 40.6875 23.2583 40.4801 22.8891 40.1109C22.5199 39.7417 22.3125 39.2409 22.3125 38.7188V19.0312C22.3125 18.5091 22.5199 18.0083 22.8891 17.6391C23.2583 17.2699 23.7591 17.0625 24.2812 17.0625H26.9062C27.4284 17.0625 27.9292 17.2699 28.2984 17.6391C28.6676 18.0083 28.875 18.5091 28.875 19.0312V38.7188C28.875 39.2409 28.6676 39.7417 28.2984 40.1109C27.9292 40.4801 27.4284 40.6875 26.9062 40.6875ZM36.0938 40.6875H33.4688C32.9466 40.6875 32.4458 40.4801 32.0766 40.1109C31.7074 39.7417 31.5 39.2409 31.5 38.7188V9.84375C31.5 9.3216 31.7074 8.82085 32.0766 8.45163C32.4458 8.08242 32.9466 7.875 33.4688 7.875H36.0938C36.6159 7.875 37.1167 8.08242 37.4859 8.45163C37.8551 8.82085 38.0625 9.3216 38.0625 9.84375V38.7188C38.0625 39.2409 37.8551 39.7417 37.4859 40.1109C37.1167 40.4801 36.6159 40.6875 36.0938 40.6875ZM17.7188 40.6875H15.0938C14.5716 40.6875 14.0708 40.4801 13.7016 40.1109C13.3324 39.7417 13.125 39.2409 13.125 38.7188V3.28125C13.125 2.7591 13.3324 2.25835 13.7016 1.88913C14.0708 1.51992 14.5716 1.3125 15.0938 1.3125H17.7188C18.2409 1.3125 18.7417 1.51992 19.1109 1.88913C19.4801 2.25835 19.6875 2.7591 19.6875 3.28125V38.7188C19.6875 39.2409 19.4801 39.7417 19.1109 40.1109C18.7417 40.4801 18.2409 40.6875 17.7188 40.6875Z" fill="#F9B374"/>
</svg>
