<svg width="42" height="42" viewBox="0 0 42 42" fill="none" xmlns="http://www.w3.org/2000/svg">
<path d="M38.43 17.0275L35.9275 8.2775C35.8257 7.91015 35.6063 7.5863 35.3028 7.35557C34.9994 7.12483 34.6287 6.99993 34.2475 7H7.7525C6.965 7 6.2825 7.525 6.0725 8.2775L3.57 17.0275C3.255 18.13 4.095 19.25 5.25 19.25H9.1L7.2625 33.04C7.22542 33.2685 7.23457 33.5021 7.28939 33.7271C7.34421 33.952 7.4436 34.1636 7.58168 34.3495C7.71975 34.5353 7.8937 34.6915 8.09323 34.8089C8.29276 34.9263 8.51382 35.0025 8.74331 35.0329C8.97281 35.0634 9.20608 35.0475 9.42932 34.9861C9.65256 34.9248 9.86122 34.8193 10.043 34.676C10.2247 34.5326 10.3758 34.3541 10.4874 34.1513C10.599 33.9485 10.6687 33.7253 10.6925 33.495L11.6725 26.25H30.345L31.3075 33.495C31.3661 33.9095 31.5713 34.2893 31.886 34.5654C32.2007 34.8416 32.6039 34.9957 33.0225 35C34.0725 35 34.8775 34.0725 34.7375 33.04L32.9 19.25H36.75C37.905 19.25 38.745 18.13 38.43 17.0275ZM12.1275 22.75L12.6 19.25H29.4L29.8725 22.75H12.1275Z" fill="#F9B374"/>
</svg>
