<svg width="20" height="20" viewBox="0 0 20 20" fill="none" xmlns="http://www.w3.org/2000/svg">
<path d="M2.09402 8.01399C2.05356 7.96081 2.02416 7.90005 2.00758 7.83532C1.991 7.77058 1.98756 7.70318 1.99747 7.63709C2.00738 7.571 2.03044 7.50757 2.06528 7.45055C2.10013 7.39352 2.14605 7.34406 2.20033 7.30509C2.25462 7.26611 2.31616 7.23841 2.38133 7.22363C2.4465 7.20885 2.51398 7.20728 2.57976 7.21902C2.64555 7.23075 2.70832 7.25556 2.76436 7.29197C2.82039 7.32838 2.86856 7.37565 2.90602 7.43099C3.25402 7.91499 3.77602 8.36499 4.44202 8.74899C5.81502 9.54099 7.69202 9.99999 9.70402 9.99999C11.716 9.99999 13.594 9.54099 14.967 8.74899C15.632 8.36499 16.154 7.91499 16.502 7.43099C16.5793 7.32318 16.6963 7.2505 16.8272 7.22893C16.9581 7.20736 17.0922 7.23868 17.2 7.31599C17.3078 7.3933 17.3805 7.51027 17.4021 7.64117C17.4236 7.77207 17.3923 7.90618 17.315 8.01399C16.878 8.62199 16.248 9.16399 15.467 9.61499C13.934 10.499 11.884 11 9.70402 11C7.52402 11 5.47402 10.5 3.94202 9.61499C3.16002 9.16399 2.53002 8.62199 2.09402 8.01499" fill="black"/>
<path d="M10.5 11C10.5 10.8674 10.4473 10.7402 10.3536 10.6464C10.2598 10.5527 10.1326 10.5 10 10.5C9.8674 10.5 9.74023 10.5527 9.64646 10.6464C9.55269 10.7402 9.50001 10.8674 9.50001 11V13.5C9.50001 13.6326 9.55269 13.7598 9.64646 13.8535C9.74023 13.9473 9.8674 14 10 14C10.1326 14 10.2598 13.9473 10.3536 13.8535C10.4473 13.7598 10.5 13.6326 10.5 13.5V11ZM6.01001 10.402C6.0209 10.3358 6.04501 10.2724 6.0809 10.2157C6.11679 10.159 6.16373 10.1101 6.21892 10.0719C6.27411 10.0337 6.33642 10.0071 6.40214 9.99347C6.46786 9.97988 6.53564 9.97966 6.60144 9.99282C6.66725 10.006 6.72973 10.0323 6.78517 10.0701C6.84061 10.1079 6.88786 10.1565 6.92412 10.213C6.96038 10.2694 6.9849 10.3326 6.99622 10.3988C7.00754 10.4649 7.00543 10.5327 6.99001 10.598L6.49001 13.098C6.46023 13.2241 6.38262 13.3338 6.27354 13.4039C6.16446 13.4739 6.03244 13.4988 5.90533 13.4734C5.77822 13.448 5.66595 13.3742 5.5922 13.2676C5.51844 13.161 5.48898 13.0299 5.51001 12.902L6.01001 10.402ZM13.99 10.402C13.9602 10.2758 13.8826 10.1662 13.7735 10.0961C13.6645 10.0261 13.5324 10.0011 13.4053 10.0266C13.2782 10.052 13.1659 10.1258 13.0922 10.2324C13.0184 10.339 12.989 10.4701 13.01 10.598L13.51 13.098C13.5398 13.2241 13.6174 13.3338 13.7265 13.4039C13.8356 13.4739 13.9676 13.4988 14.0947 13.4734C14.2218 13.448 14.3341 13.3742 14.4078 13.2676C14.4816 13.161 14.511 13.0299 14.49 12.902L13.99 10.402ZM16.354 8.64598C16.2601 8.5521 16.1328 8.49935 16 8.49935C15.8672 8.49935 15.7399 8.5521 15.646 8.64598C15.5521 8.73987 15.4994 8.86721 15.4994 8.99998C15.4994 9.13276 15.5521 9.2601 15.646 9.35398L17.646 11.354C17.7399 11.4479 17.8672 11.5006 18 11.5006C18.1328 11.5006 18.2601 11.4479 18.354 11.354C18.4479 11.2601 18.5006 11.1328 18.5006 11C18.5006 10.8672 18.4479 10.7399 18.354 10.646L16.354 8.64598ZM3.44801 8.66398C3.49153 8.61322 3.54479 8.5717 3.60463 8.54189C3.66448 8.51207 3.7297 8.49455 3.79643 8.49038C3.86316 8.48621 3.93006 8.49547 3.99315 8.51761C4.05624 8.53974 4.11425 8.57431 4.16375 8.61926C4.21325 8.66421 4.25323 8.71863 4.28133 8.77931C4.30942 8.83998 4.32507 8.90567 4.32733 8.9725C4.32959 9.03932 4.31843 9.10592 4.2945 9.16835C4.27057 9.23079 4.23436 9.28779 4.18801 9.33598L2.37001 11.336C2.27981 11.4298 2.15659 11.4847 2.02653 11.4891C1.89647 11.4935 1.76982 11.447 1.67348 11.3596C1.57714 11.2721 1.5187 11.1505 1.51059 11.0206C1.50247 10.8907 1.54531 10.7628 1.63001 10.664L3.44801 8.66398Z" fill="black"/>
</svg>
