<svg width="55" height="55" viewBox="0 0 55 55" fill="none" xmlns="http://www.w3.org/2000/svg">
<path d="M50.2951 25.0731C50.0843 24.1637 49.6776 23.3112 49.1035 22.5752C48.5208 21.8447 47.7856 21.2503 46.9493 20.8335C46.2898 20.5091 45.574 20.3146 44.841 20.2606C44.4674 16.2504 42.69 12.5009 39.8222 9.67309C36.5567 6.41245 32.1306 4.58105 27.516 4.58105C22.9013 4.58105 18.4752 6.41245 15.2097 9.67309C12.3419 12.5009 10.5645 16.2504 10.191 20.2606C9.45793 20.3146 8.74214 20.5091 8.08262 20.8335C7.24217 21.2438 6.50565 21.8393 5.92846 22.5752C5.34997 23.3096 4.94278 24.164 4.73661 25.0758C4.53044 25.9877 4.53051 26.9341 4.73679 27.846L8.33471 42.5814C8.95397 44.8392 10.2995 46.8302 12.1635 48.2468C14.0274 49.6634 16.306 50.4268 18.6472 50.4189H36.316C38.6651 50.4214 40.9498 49.6508 42.8176 48.2262C44.6855 46.8015 46.0326 44.8018 46.6514 42.5356L50.2264 27.846C50.4555 26.9385 50.4785 25.9898 50.2951 25.0731ZM20.2743 39.7856C20.2743 40.2414 20.0932 40.6786 19.7709 41.0009C19.4485 41.3233 19.0114 41.5043 18.5555 41.5043C18.0997 41.5043 17.6625 41.3233 17.3402 41.0009C17.0179 40.6786 16.8368 40.2414 16.8368 39.7856V30.7564C16.8368 30.3006 17.0179 29.8634 17.3402 29.5411C17.6625 29.2188 18.0997 29.0377 18.5555 29.0377C19.0114 29.0377 19.4485 29.2188 19.7709 29.5411C20.0932 29.8634 20.2743 30.3006 20.2743 30.7564V39.7856ZM29.2347 39.7856C29.2347 40.0113 29.1902 40.2348 29.1039 40.4433C29.0175 40.6519 28.8909 40.8413 28.7313 41.0009C28.5717 41.1605 28.3822 41.2871 28.1737 41.3735C27.9652 41.4599 27.7417 41.5043 27.516 41.5043C27.2902 41.5043 27.0667 41.4599 26.8582 41.3735C26.6497 41.2871 26.4602 41.1605 26.3006 41.0009C26.141 40.8413 26.0144 40.6519 25.928 40.4433C25.8417 40.2348 25.7972 40.0113 25.7972 39.7856V30.7564C25.7972 30.3006 25.9783 29.8634 26.3006 29.5411C26.6229 29.2188 27.0601 29.0377 27.516 29.0377C27.9718 29.0377 28.409 29.2188 28.7313 29.5411C29.0536 29.8634 29.2347 30.3006 29.2347 30.7564V39.7856ZM38.1951 39.7856C38.1951 40.2414 38.014 40.6786 37.6917 41.0009C37.3694 41.3233 36.9322 41.5043 36.4764 41.5043C36.0205 41.5043 35.5834 41.3233 35.261 41.0009C34.9387 40.6786 34.7576 40.2414 34.7576 39.7856V30.7564C34.7576 30.3006 34.9387 29.8634 35.261 29.5411C35.5834 29.2188 36.0205 29.0377 36.4764 29.0377C36.9322 29.0377 37.3694 29.2188 37.6917 29.5411C38.014 29.8634 38.1951 30.3006 38.1951 30.7564V39.7856ZM13.6514 20.2148C14.0283 17.1385 15.4334 14.2797 17.6389 12.1023C20.2628 9.49094 23.8141 8.02497 27.516 8.02497C31.2178 8.02497 34.7691 9.49094 37.393 12.1023C39.5985 14.2797 41.0036 17.1385 41.3805 20.2148H13.6514Z" fill="black"/>
</svg>
