<svg width="55" height="55" viewBox="0 0 55 55" fill="none" xmlns="http://www.w3.org/2000/svg">
<path d="M18.5628 30.5707L25.0482 24.0853L8.96073 8.02067C7.24504 9.74302 6.28174 12.075 6.28174 14.5061C6.28174 16.9372 7.24504 19.2692 8.96073 20.9915L18.5628 30.5707ZM34.1003 26.4228C37.6066 28.0498 42.5336 26.904 46.1774 23.2603C50.5545 18.8832 51.4024 12.604 48.0336 9.23526C44.6878 5.88942 38.4086 6.71442 34.0086 11.0915C30.3649 14.7353 29.2191 19.6623 30.8461 23.1686L8.47948 45.5353L11.7107 48.7665L27.5003 33.0228L43.267 48.7894L46.4982 45.5582L30.7316 29.7915L34.1003 26.4228Z" fill="black"/>
</svg>
