<svg width="55" height="55" viewBox="0 0 55 55" fill="none" xmlns="http://www.w3.org/2000/svg">
<path d="M11.1719 53.2812H7.73438C7.05061 53.2812 6.39486 53.0096 5.91137 52.5261C5.42787 52.0426 5.15625 51.3869 5.15625 50.7031V35.2344C5.15625 34.5506 5.42787 33.8949 5.91137 33.4114C6.39486 32.9279 7.05061 32.6562 7.73438 32.6562H11.1719C11.8556 32.6562 12.5114 32.9279 12.9949 33.4114C13.4784 33.8949 13.75 34.5506 13.75 35.2344V50.7031C13.75 51.3869 13.4784 52.0426 12.9949 52.5261C12.5114 53.0096 11.8556 53.2812 11.1719 53.2812ZM35.2344 53.2812H31.7969C31.1131 53.2812 30.4574 53.0096 29.9739 52.5261C29.4904 52.0426 29.2188 51.3869 29.2188 50.7031V24.9219C29.2188 24.2381 29.4904 23.5824 29.9739 23.0989C30.4574 22.6154 31.1131 22.3438 31.7969 22.3438H35.2344C35.9181 22.3438 36.5739 22.6154 37.0574 23.0989C37.5409 23.5824 37.8125 24.2381 37.8125 24.9219V50.7031C37.8125 51.3869 37.5409 52.0426 37.0574 52.5261C36.5739 53.0096 35.9181 53.2812 35.2344 53.2812ZM47.2656 53.2812H43.8281C43.1444 53.2812 42.4886 53.0096 42.0051 52.5261C41.5216 52.0426 41.25 51.3869 41.25 50.7031V12.8906C41.25 12.2069 41.5216 11.5511 42.0051 11.0676C42.4886 10.5841 43.1444 10.3125 43.8281 10.3125H47.2656C47.9494 10.3125 48.6051 10.5841 49.0886 11.0676C49.5721 11.5511 49.8438 12.2069 49.8438 12.8906V50.7031C49.8438 51.3869 49.5721 52.0426 49.0886 52.5261C48.6051 53.0096 47.9494 53.2812 47.2656 53.2812ZM23.2031 53.2812H19.7656C19.0819 53.2812 18.4261 53.0096 17.9426 52.5261C17.4591 52.0426 17.1875 51.3869 17.1875 50.7031V4.29688C17.1875 3.61311 17.4591 2.95736 17.9426 2.47387C18.4261 1.99037 19.0819 1.71875 19.7656 1.71875H23.2031C23.8869 1.71875 24.5426 1.99037 25.0261 2.47387C25.5096 2.95736 25.7812 3.61311 25.7812 4.29688V50.7031C25.7812 51.3869 25.5096 52.0426 25.0261 52.5261C24.5426 53.0096 23.8869 53.2812 23.2031 53.2812Z" fill="black"/>
</svg>
